{"title":"12 Years a Slave 2013 DVDScr XVID AC3 HQ Hive-CM8","uid":9419423,"size":1983301805,"categoryP":"video","categoryS":"movies","magnet":"?xt=urn:btih:d26ff842913f6c517d6144c5d16a97f7f0603434&amp;dn=12+Years+a+Slave+2013+DVDScr+XVID+AC3+HQ+Hive-CM8&amp;tr=udp%3A%2F%2Ftracker.openbittorrent.com%3A80&amp;tr=udp%3A%2F%2Fopen.demonii.com%3A1337&amp;tr=udp%3A%2F%2Ftracker.coppersurfer.tk%3A6969&amp;tr=udp%3A%2F%2Fexodus.desync.com%3A6969","seeders":2,"leechers":1,"uploader":"TeX","files":3,"time":1388532062,"description":"12 Years a Slave 2013 DVDScr XVID AC3 HQ Hive-CM8\n &lt;a href=&quot;\nhttp://img850.imageshack.us/img850/7833/68mr.jpg&quot; rel=&quot;nofollow&quot; target=&quot;_NEW&quot;&gt;\nhttp://img850.imageshack.us/img850/7833/68mr.jpg&lt;/a&gt;\n\n\n12.Years.a.Slave.2013.DVDScr.XVID.AC3.HQ.Hive-CM8\n\nThx Hive\n\nCM8 Doing It Right The First Time\n\n\nSource: DVD-R Scr  \n\nBig Thanks DRs\n\n\nWell first of all Happy New Year!!\nHappy to get you the first Screener of 2014 -- and more to come\n\nEncode:\n\nDVD had great quality, not much to do, just sharpening\nsecurity upfront removed\nlooks like a great movie\nenjoy\n\nVideo: 720x304 @bitrate 1500 2pass\nAudio: English AC3 5.1 @448\nSample: yes included\n\n\n &lt;a href=&quot;\nhttp://www.imdb.com/title/tt2024544/&quot; rel=&quot;nofollow&quot; target=&quot;_NEW&quot;&gt;\nhttp://www.imdb.com/title/tt2024544/&lt;/a&gt;\n\n\nGeneral\nComplete name                  : 12.Years.a.Slave.2013.DVDScr.XVID.AC3.HQ.Hive-CM8.avi\nFormat                         : AVI\nFormat/Info                    : Audio Video Interleave\nFile size                      : 1.83 GiB\nDuration                       : 2h 14mn\nOverall bit rate               : 1 957 Kbps\nWriting application            : Nandub v1.0rc2\nWriting library                : Nandub build 1853/release\n\nVideo\nID                             : 0\nFormat                         : MPEG-4 Visual\nFormat profile                 : Advanced Simple@L5\nFormat settings, BVOP          : 2\nFormat settings, QPel          : Yes\nFormat settings, GMC           : No warppoints\nFormat settings, Matrix        : Default (H.263)\nMuxing mode                    : Packed bitstream\nCodec ID                       : XVID\nCodec ID/Hint                  : XviD\nDuration                       : 2h 14mn\nBit rate                       : 1 499 Kbps\nWidth                          : 720 pixels\nHeight                         : 304 pixels\nDisplay aspect ratio           : 2.35:1\nFrame rate                     : 23.976 fps\nColor space                    : YUV\nChroma subsampling             : 4:2:0\nBit depth                      : 8 bits\nScan type                      : Progressive\nCompression mode               : Lossy\nBits/(Pixel*Frame)             : 0.286\nStream size                    : 1.40 GiB (77%)\nWriting library                : XviD 1.2.1 (UTC 2008-12-04)\n\nAudio\nID                             : 1\nFormat                         : AC-3\nFormat/Info                    : Audio Coding 3\nMode extension                 : CM (complete main)\nFormat settings, Endianness    : Big\nCodec ID                       : 2000\nDuration                       : 2h 14mn\nBit rate mode                  : Constant\nBit rate                       : 448 Kbps\nChannel(s)                     : 6 channels\nChannel positions              : Front: L C R, Side: L R, LFE\nSampling rate                  : 48.0 KHz\nBit depth                      : 16 bits\nCompression mode               : Lossy\nDelay relative to video        : 28ms\nStream size                    : 430 MiB (23%)\nAlignment                      : Split accross interleaves\nInterleave, duration           : 42 ms (1.00 video frame)\nInterleave, preload duration   : 500 ms\n\n\nPlot:\n\nIn the antebellum United States, Solomon Northup, a free black man from upstate New York,\nis abducted and sold into slavery.\n\n\nCast:\n\nChiwetel Ejiofor ... Solomon Northup\nDwight Henry ... Uncle Abram\nDickie Gravois ... Overseer\nBryan Batt ... Judge Turner\nAshley Dyke ... Anna \n &lt;a href=&quot;\nhttp://img833.imageshack.us/img833/6538/rgh1.png&quot; rel=&quot;nofollow&quot; target=&quot;_NEW&quot;&gt;\nhttp://img833.imageshack.us/img833/6538/rgh1.png&lt;/a&gt; &lt;a href=&quot;\nhttp://img809.imageshack.us/img809/7020/h059.png&quot; rel=&quot;nofollow&quot; target=&quot;_NEW&quot;&gt;\nhttp://img809.imageshack.us/img809/7020/h059.png&lt;/a&gt; &lt;a href=&quot;\nhttp://img19.imageshack.us/img19/9526/t33q.png&quot; rel=&quot;nofollow&quot; target=&quot;_NEW&quot;&gt;\nhttp://img19.imageshack.us/img19/9526/t33q.png&lt;/a&gt;","torrent":{"xt":"urn:btih:d26ff842913f6c517d6144c5d16a97f7f0603434","amp;dn":"12+Years+a+Slave+2013+DVDScr+XVID+AC3+HQ+Hive-CM8","amp;tr":["udp%3A%2F%2Ftracker.openbittorrent.com%3A80","udp%3A%2F%2Fopen.demonii.com%3A1337","udp%3A%2F%2Ftracker.coppersurfer.tk%3A6969","udp%3A%2F%2Fexodus.desync.com%3A6969"],"infoHash":"d26ff842913f6c517d6144c5d16a97f7f0603434","infoHashBuffer":{"type":"Buffer","data":[210,111,248,66,145,63,108,81,125,97,68,197,209,106,151,247,240,96,52,52]},"announce":[],"urlList":[]}}